<svg id="Ebene_1" data-name="Ebene 1" xmlns="http://www.w3.org/2000/svg" xmlns:xlink="http://www.w3.org/1999/xlink" viewBox="0 0 100 10"><defs><style>.cls-1{fill:url(#Unbenannter_Verlauf_15);}.cls-2{fill:#fff;stroke:#000;stroke-miterlimit:10;stroke-width:0.1px;}.cls-3{fill:#1d1d1b;}.cls-4{fill:#373636;}</style><linearGradient id="Unbenannter_Verlauf_15" x1="5.14" y1="5.32" x2="70.07" y2="5.32" gradientUnits="userSpaceOnUse"><stop offset="0" stop-color="#835204"/><stop offset="0.47" stop-color="#7f4f04"/><stop offset="0.95" stop-color="#734802"/><stop offset="1" stop-color="#714702"/></linearGradient></defs><title>Koe</title><polygon class="cls-1" points="70.07 3.3 70.07 7.35 5.14 6.86 5.14 3.71 70.07 3.3"/><rect class="cls-2" x="0.15" y="3.62" width="6.58" height="3.33" rx="0.62" ry="0.62"/><polygon class="cls-3" points="100 3.11 100 7.58 99.36 7.58 98.3 7.57 97.38 7.56 96.32 7.55 95.4 7.54 94.33 7.54 93.41 7.53 92.35 7.52 91.43 7.51 90.36 7.51 89.44 7.5 88.38 7.49 87.46 7.48 86.39 7.48 85.47 7.47 84.41 7.46 83.49 7.45 82.43 7.44 81.49 7.44 80.44 7.43 79.51 7.42 78.46 7.41 77.52 7.41 76.47 7.4 75.54 7.39 74.49 7.38 73.55 7.38 72.5 7.37 71.57 7.36 70.52 7.35 70.07 7.35 70.07 3.3 70.57 3.3 71.64 3.29 72.59 3.28 73.65 3.28 74.6 3.27 75.67 3.26 76.61 3.26 77.68 3.25 78.62 3.25 79.69 3.24 80.64 3.23 81.7 3.23 82.65 3.22 83.72 3.21 84.66 3.21 85.73 3.2 86.68 3.19 87.75 3.19 88.69 3.18 89.77 3.17 90.7 3.17 91.78 3.16 92.71 3.16 93.79 3.15 94.73 3.14 95.8 3.14 96.74 3.13 97.82 3.12 98.75 3.12 99.83 3.11 100 3.11"/><polygon class="cls-4" points="77.68 3.25 73.55 7.38 72.5 7.37 76.61 3.26 77.68 3.25"/><polygon class="cls-4" points="75.67 3.26 71.57 7.36 70.52 7.35 74.6 3.27 75.67 3.26"/><polygon class="cls-4" points="73.65 3.28 70.07 6.86 70.07 5.8 72.59 3.28 73.65 3.28"/><polygon class="cls-4" points="71.64 3.29 70.07 4.86 70.07 3.8 70.57 3.3 71.64 3.29"/><polygon class="cls-4" points="79.69 3.24 75.54 7.39 74.49 7.38 78.62 3.25 79.69 3.24"/><polygon class="cls-4" points="81.7 3.23 77.52 7.41 76.47 7.4 80.64 3.23 81.7 3.23"/><polygon class="cls-4" points="83.72 3.21 79.51 7.42 78.46 7.41 82.65 3.22 83.72 3.21"/><polygon class="cls-4" points="85.73 3.2 81.49 7.44 80.44 7.43 84.66 3.21 85.73 3.2"/><polygon class="cls-4" points="87.75 3.19 83.49 7.45 82.43 7.44 86.68 3.19 87.75 3.19"/><polygon class="cls-4" points="89.77 3.17 85.47 7.47 84.41 7.46 88.69 3.18 89.77 3.17"/><polygon class="cls-4" points="91.78 3.16 87.46 7.48 86.39 7.48 90.7 3.17 91.78 3.16"/><polygon class="cls-4" points="93.79 3.15 89.44 7.5 88.38 7.49 92.71 3.16 93.79 3.15"/><polygon class="cls-4" points="95.8 3.14 91.43 7.51 90.36 7.51 94.73 3.14 95.8 3.14"/><polygon class="cls-4" points="97.82 3.12 93.41 7.53 92.35 7.52 96.74 3.13 97.82 3.12"/><polygon class="cls-4" points="99.83 3.11 95.4 7.54 94.33 7.54 98.75 3.12 99.83 3.11"/><polygon class="cls-4" points="100 3.87 100 4.94 97.38 7.56 96.32 7.55 100 3.87"/><polygon class="cls-4" points="100 5.87 100 6.94 99.36 7.58 98.3 7.57 100 5.87"/></svg>