<svg id="Ebene_1" data-name="Ebene 1" xmlns="http://www.w3.org/2000/svg" xmlns:xlink="http://www.w3.org/1999/xlink" viewBox="0 0 32 32"><defs><style>.cls-1{fill:url(#Unbenannter_Verlauf_659);}.cls-2{fill:#fff;}.cls-3{fill:#010101;}.cls-4{fill:url(#Unbenannter_Verlauf_22);}</style><linearGradient id="Unbenannter_Verlauf_659" x1="5.8" y1="4.35" x2="26.37" y2="27.84" gradientUnits="userSpaceOnUse"><stop offset="0" stop-color="#e20d18"/><stop offset="0.05" stop-color="#d2171b"/><stop offset="0.16" stop-color="#a73123"/><stop offset="0.31" stop-color="#615c2f"/><stop offset="0.5" stop-color="#039540"/><stop offset="0.5" stop-color="#009741"/><stop offset="1" stop-color="#2072b9"/></linearGradient><radialGradient id="Unbenannter_Verlauf_22" cx="2.94" cy="-5.94" r="24.71" gradientTransform="translate(1.25 -1.82) rotate(7.7)" gradientUnits="userSpaceOnUse"><stop offset="0" stop-color="#fff" stop-opacity="0"/><stop offset="0.8" stop-color="#666" stop-opacity="0.18"/><stop offset="0.93" stop-opacity="0.3"/></radialGradient></defs><title>Logo01</title><circle class="cls-1" cx="16" cy="16" r="16"/><ellipse class="cls-2" cx="14.16" cy="8.35" rx="7.41" ry="6.35" transform="translate(-0.99 1.97) rotate(-7.7)"/><path class="cls-3" d="M15.28,8.13a2.54,2.54,0,0,1-.64.82,2.19,2.19,0,0,1-.91.43,2.12,2.12,0,0,1-1,0,2.16,2.16,0,0,1-.87-.4,2.51,2.51,0,0,1-.67-.74,2.88,2.88,0,0,1-.39-1,3.32,3.32,0,0,1-.05-1.13,2.65,2.65,0,0,1,.36-1,2.6,2.6,0,0,1,.71-.77,3,3,0,0,1,2.31-.45,2.51,2.51,0,0,1,1.07.56,3.9,3.9,0,0,1,.83,1.13,7.1,7.1,0,0,1,.57,1.67,8,8,0,0,1,.2,1.92,4,4,0,0,1-.31,1.5,2.54,2.54,0,0,1-.76,1,2.89,2.89,0,0,1-1.19.54,2.55,2.55,0,0,1-1.26,0,2,2,0,0,1-.92-.52A1.47,1.47,0,0,1,12,11a.63.63,0,0,1,.08-.46.57.57,0,0,1,.38-.27.74.74,0,0,1,.44,0,.83.83,0,0,1,.37.35,1.11,1.11,0,0,0,.51.45,1,1,0,0,0,.65.07,1.08,1.08,0,0,0,.54-.28,1.59,1.59,0,0,0,.36-.56A4.6,4.6,0,0,0,15.28,8.13Zm-.49-1.67a2.74,2.74,0,0,0-.25-.68,1.62,1.62,0,0,0-.4-.49,1.29,1.29,0,0,0-.5-.27,1.1,1.1,0,0,0-.57,0,1.06,1.06,0,0,0-.75.64,1.91,1.91,0,0,0-.09,1.27,1.93,1.93,0,0,0,.6,1.1,1.11,1.11,0,0,0,1,.24,1.17,1.17,0,0,0,.59-.31,1.44,1.44,0,0,0,.38-.63A1.87,1.87,0,0,0,14.79,6.46Z" transform="translate(0 0)"/><ellipse class="cls-4" cx="14.16" cy="8.35" rx="7.41" ry="6.35" transform="translate(-0.99 1.97) rotate(-7.7)"/></svg>